<svg xmlns="http://www.w3.org/2000/svg" width="272.9" height="35" viewBox="0 0 272.9 35"><rect class="svg__rect" x="0" y="0" width="66.92" height="35" fill="#31C4F3"/><rect class="svg__rect" x="64.92" y="0" width="207.97999999999996" height="35" fill="#389AD5"/><path class="svg__text" d="M15.00 22L13.46 22L16.68 13.47L18.01 13.47L21.24 22L19.69 22L18.99 20.01L15.69 20.01L15.00 22ZM17.34 15.28L16.10 18.82L18.58 18.82L17.34 15.28ZM25.06 19.16L25.06 19.16L25.06 13.47L26.53 13.47L26.53 19.18Q26.53 20.03 26.97 20.48Q27.40 20.93 28.24 20.93L28.24 20.93Q29.96 20.93 29.96 19.13L29.96 19.13L29.96 13.47L31.43 13.47L31.43 19.17Q31.43 20.53 30.56 21.32Q29.69 22.12 28.24 22.12L28.24 22.12Q26.78 22.12 25.92 21.33Q25.06 20.55 25.06 19.16ZM37.68 14.66L35.05 14.66L35.05 13.47L41.81 13.47L41.81 14.66L39.15 14.66L39.15 22L37.68 22L37.68 14.66ZM45.30 18.00L45.30 18.00L45.30 17.52Q45.30 16.28 45.74 15.32Q46.19 14.37 46.99 13.86Q47.80 13.35 48.84 13.35Q49.88 13.35 50.69 13.85Q51.49 14.35 51.93 15.29Q52.37 16.23 52.38 17.48L52.38 17.48L52.38 17.96Q52.38 19.21 51.95 20.16Q51.51 21.10 50.71 21.61Q49.90 22.12 48.85 22.12L48.85 22.12Q47.81 22.12 47.00 21.61Q46.19 21.10 45.75 20.17Q45.31 19.23 45.30 18.00ZM46.78 17.46L46.78 17.96Q46.78 19.36 47.33 20.13Q47.88 20.90 48.85 20.90L48.85 20.90Q49.84 20.90 50.37 20.15Q50.90 19.40 50.90 17.96L50.90 17.96L50.90 17.51Q50.90 16.09 50.36 15.34Q49.82 14.58 48.84 14.58L48.84 14.58Q47.88 14.58 47.34 15.33Q46.80 16.09 46.78 17.46L46.78 17.46Z" fill="#FFFFFF"/><path class="svg__text" d="M81.31 22L79.11 22L79.11 13.60L81.06 13.60L84.02 18.45L86.90 13.60L88.85 13.60L88.88 22L86.70 22L86.67 17.55L84.51 21.17L83.46 21.17L81.31 17.67L81.31 22ZM95.46 22L93.03 22L96.74 13.60L99.08 13.60L102.80 22L100.33 22L99.67 20.37L96.12 20.37L95.46 22ZM97.89 15.93L96.81 18.61L98.97 18.61L97.89 15.93ZM106.52 17.80L106.52 17.80Q106.52 16.54 107.12 15.54Q107.72 14.55 108.77 13.99Q109.82 13.43 111.14 13.43L111.14 13.43Q112.30 13.43 113.22 13.84Q114.14 14.25 114.76 15.02L114.76 15.02L113.24 16.39Q112.43 15.40 111.26 15.40L111.26 15.40Q110.58 15.40 110.05 15.70Q109.51 16 109.22 16.54Q108.92 17.09 108.92 17.80L108.92 17.80Q108.92 18.51 109.22 19.05Q109.51 19.60 110.05 19.90Q110.58 20.20 111.26 20.20L111.26 20.20Q112.43 20.20 113.24 19.22L113.24 19.22L114.76 20.58Q114.15 21.35 113.22 21.76Q112.30 22.17 111.14 22.17L111.14 22.17Q109.82 22.17 108.77 21.61Q107.72 21.05 107.12 20.05Q106.52 19.06 106.52 17.80ZM121.67 22L119.29 22L119.29 13.60L121.67 13.60L121.67 16.76L124.91 16.76L124.91 13.60L127.28 13.60L127.28 22L124.91 22L124.91 18.72L121.67 18.72L121.67 22ZM134.82 22L132.45 22L132.45 13.60L134.82 13.60L134.82 22ZM142.33 22L140.00 22L140.00 13.60L141.96 13.60L145.66 18.07L145.66 13.60L147.99 13.60L147.99 22L146.04 22L142.33 17.52L142.33 22ZM159.90 22L153.15 22L153.15 13.60L159.74 13.60L159.74 15.44L155.51 15.44L155.51 16.85L159.24 16.85L159.24 18.63L155.51 18.63L155.51 20.17L159.90 20.17L159.90 22ZM178.06 22L171.67 22L171.67 13.60L174.05 13.60L174.05 20.11L178.06 20.11L178.06 22ZM189.22 22L182.48 22L182.48 13.60L189.07 13.60L189.07 15.44L184.83 15.44L184.83 16.85L188.57 16.85L188.57 18.63L184.83 18.63L184.83 20.17L189.22 20.17L189.22 22ZM195.45 22L193.02 22L196.73 13.60L199.07 13.60L202.79 22L200.32 22L199.66 20.37L196.11 20.37L195.45 22ZM197.88 15.93L196.80 18.61L198.96 18.61L197.88 15.93ZM209.32 22L206.94 22L206.94 13.60L210.79 13.60Q211.93 13.60 212.77 13.98Q213.60 14.35 214.06 15.06Q214.52 15.76 214.52 16.71L214.52 16.71Q214.52 17.62 214.09 18.30Q213.66 18.98 212.87 19.36L212.87 19.36L214.68 22L212.14 22L210.62 19.77L209.32 19.77L209.32 22ZM209.32 15.47L209.32 17.93L210.64 17.93Q211.37 17.93 211.74 17.61Q212.12 17.29 212.12 16.71L212.12 16.71Q212.12 16.12 211.74 15.79Q211.37 15.47 210.64 15.47L210.64 15.47L209.32 15.47ZM221.64 22L219.31 22L219.31 13.60L221.26 13.60L224.97 18.07L224.97 13.60L227.30 13.60L227.30 22L225.35 22L221.64 17.52L221.64 22ZM234.84 22L232.46 22L232.46 13.60L234.84 13.60L234.84 22ZM242.34 22L240.01 22L240.01 13.60L241.97 13.60L245.68 18.07L245.68 13.60L248.00 13.60L248.00 22L246.05 22L242.34 17.52L242.34 22ZM252.74 17.80L252.74 17.80Q252.74 16.54 253.34 15.54Q253.93 14.55 255.00 13.99Q256.07 13.43 257.41 13.43L257.41 13.43Q258.59 13.43 259.53 13.83Q260.47 14.22 261.09 14.97L261.09 14.97L259.58 16.33Q258.73 15.40 257.56 15.40L257.56 15.40Q257.54 15.40 257.54 15.40L257.54 15.40Q256.46 15.40 255.80 16.06Q255.14 16.71 255.14 17.80L255.14 17.80Q255.14 18.50 255.44 19.04Q255.74 19.59 256.28 19.89Q256.82 20.20 257.51 20.20L257.51 20.20Q258.20 20.20 258.80 19.93L258.80 19.93L258.80 17.62L260.90 17.62L260.90 21.10Q260.17 21.61 259.24 21.89Q258.31 22.17 257.37 22.17L257.37 22.17Q256.05 22.17 254.99 21.61Q253.93 21.05 253.34 20.05Q252.74 19.06 252.74 17.80Z" fill="#FFFFFF" x="77.92"/></svg>